<svg id="svg" version="1.1" xmlns="http://www.w3.org/2000/svg" xmlns:xlink="http://www.w3.org/1999/xlink" width="120" height="120" viewBox="0, 0, 400,400"><g id="svgg"><path id="path0" d="M134.600 130.964 L 133.400 131.924 133.200 199.462 L 133.000 267.000 66.500 267.101 C 22.632 267.168,0.000 267.338,0.000 267.601 C 0.000 267.865,22.539 268.000,66.427 268.000 L 132.853 268.000 132.727 269.100 L 132.600 270.200 66.300 270.301 L -0.000 270.402 -0.000 335.201 L 0.000 400.000 200.000 400.000 L 400.000 400.000 400.000 335.201 L 400.000 270.402 333.700 270.301 L 267.400 270.200 267.273 269.100 L 267.147 268.000 333.573 268.000 C 377.591 268.000,400.000 267.865,400.000 267.600 C 400.000 267.335,377.600 267.200,333.600 267.200 L 267.200 267.200 267.200 199.675 L 267.200 132.150 266.078 131.075 L 264.956 130.000 200.378 130.002 L 135.800 130.004 134.600 130.964 M265.262 132.017 L 266.800 133.634 266.800 200.193 C 266.800 246.521,266.672 266.832,266.377 267.014 C 266.145 267.158,265.515 267.165,264.978 267.030 L 264.002 266.785 263.901 199.893 L 263.800 133.000 200.000 133.000 L 136.200 133.000 136.000 200.000 L 135.800 267.000 134.700 267.127 L 133.600 267.253 133.600 200.427 L 133.600 133.600 135.100 132.033 L 136.600 130.467 200.162 130.433 L 263.724 130.400 265.262 132.017 " stroke="none" fill="#ac2c8c" fill-rule="evenodd"></path><path id="path1" d="M133.101 64.900 L 133.000 129.800 66.500 129.901 L 0.000 130.002 0.000 131.201 L 0.000 132.400 66.157 132.400 C 126.115 132.400,132.337 132.459,132.557 133.033 C 132.691 133.381,132.800 163.620,132.800 200.232 L 132.800 266.798 66.500 266.901 L 0.200 267.004 66.600 267.002 L 133.000 267.000 133.200 199.462 L 133.400 131.924 134.600 130.964 L 135.800 130.004 200.425 130.002 L 265.050 130.000 266.125 131.122 L 267.200 132.244 267.200 199.722 L 267.200 267.200 333.700 267.101 L 400.200 267.002 333.899 266.900 L 267.598 266.798 267.699 199.699 L 267.800 132.600 333.900 132.499 L 400.000 132.398 400.000 131.200 L 400.000 130.002 333.500 129.901 L 267.000 129.800 266.899 64.900 L 266.798 0.000 265.599 0.000 L 264.400 0.000 264.400 64.557 C 264.400 123.056,264.341 129.137,263.767 129.357 C 262.940 129.675,137.060 129.675,136.233 129.357 C 135.659 129.137,135.600 123.056,135.600 64.557 L 135.600 0.000 134.401 0.000 L 133.202 0.000 133.101 64.900 " stroke="none" fill="#4c4c4c" fill-rule="evenodd"></path><path id="path2" d="M135.100 132.033 L 133.600 133.600 133.600 200.427 L 133.600 267.253 134.700 267.127 L 135.800 267.000 136.000 200.000 L 136.200 133.000 200.000 133.000 L 263.800 133.000 263.901 199.893 L 264.002 266.785 264.978 267.030 C 265.515 267.165,266.145 267.158,266.377 267.014 C 266.672 266.832,266.800 246.521,266.800 200.193 L 266.800 133.634 265.262 132.017 L 263.724 130.400 200.162 130.433 L 136.600 130.467 135.100 132.033 M0.000 269.201 L 0.000 270.402 66.300 270.301 L 132.600 270.200 132.727 269.100 L 132.853 268.000 66.427 268.000 L 0.000 268.000 0.000 269.201 M267.273 269.100 L 267.400 270.200 333.700 270.301 L 400.000 270.402 400.000 269.201 L 400.000 268.000 333.573 268.000 L 267.147 268.000 267.273 269.100 " stroke="none" fill="#d43ca4" fill-rule="evenodd"></path><path id="path3" d="M-0.000 64.801 L -0.000 129.602 66.300 129.501 L 132.600 129.400 132.701 64.700 L 132.802 0.000 66.401 0.000 L 0.000 0.000 -0.000 64.801 M136.400 64.600 L 136.400 129.200 200.200 129.200 L 264.000 129.200 264.000 64.600 L 264.000 0.000 200.200 0.000 L 136.400 0.000 136.400 64.600 M267.699 64.700 L 267.800 129.400 333.900 129.501 L 400.000 129.602 400.000 64.801 L 400.000 0.000 333.799 0.000 L 267.598 0.000 267.699 64.700 M0.000 200.000 L 0.000 266.800 66.200 266.800 L 132.400 266.800 132.400 200.000 L 132.400 133.200 66.200 133.200 L 0.000 133.200 0.000 200.000 M267.785 133.700 C 267.680 133.975,267.641 163.990,267.697 200.400 L 267.800 266.600 333.900 266.701 L 400.000 266.802 400.000 200.001 L 400.000 133.200 333.987 133.200 C 281.545 133.200,267.936 133.303,267.785 133.700 " stroke="none" fill="#040404" fill-rule="evenodd"></path><path id="path4" d="M132.799 64.600 L 132.600 129.400 66.200 129.602 L -0.200 129.804 66.313 129.902 C 119.227 129.980,132.864 129.898,133.015 129.500 C 133.120 129.225,133.159 99.930,133.102 64.400 L 132.999 -0.200 132.799 64.600 M135.600 64.592 L 135.600 129.185 136.500 129.402 C 136.995 129.521,165.840 129.569,200.600 129.508 L 263.800 129.398 200.100 129.299 L 136.400 129.200 136.400 64.600 C 136.400 21.800,136.265 0.000,136.000 0.000 C 135.735 0.000,135.600 21.797,135.600 64.592 M264.195 64.600 C 264.195 100.240,264.242 114.761,264.300 96.868 C 264.358 78.976,264.358 49.816,264.300 32.068 C 264.242 14.321,264.195 28.960,264.195 64.600 M266.899 64.900 L 267.000 129.800 333.600 129.802 L 400.200 129.805 334.000 129.602 L 267.800 129.400 267.699 64.700 C 267.632 21.901,267.462 -0.000,267.198 -0.000 C 266.932 -0.000,266.832 21.833,266.899 64.900 M0.000 132.800 C 0.000 133.065,22.333 133.200,66.200 133.200 L 132.400 133.200 132.499 200.100 L 132.598 267.000 132.708 200.600 C 132.769 164.080,132.721 133.795,132.602 133.300 L 132.385 132.400 66.192 132.400 C 22.331 132.400,0.000 132.535,0.000 132.800 M267.867 132.667 C 267.720 132.813,267.600 133.038,267.600 133.167 C 267.600 133.295,297.390 133.354,333.800 133.298 C 377.337 133.230,400.000 133.059,400.000 132.798 C 400.000 132.348,268.316 132.218,267.867 132.667 " stroke="none" fill="#3c2824" fill-rule="evenodd"></path></g></svg>